<svg xmlns="http://www.w3.org/2000/svg" width="210" height="280" viewBox="0 0 210 280"><title>Scuderia Ferrari Logo</title><path d="M105 28.5C42.5 28.5 5.2 50.6 5.2 50.6L6 100.9c0 23.1 7.5 121.4 99 174.9 91.5-53.5 99-151.7 99-174.9l0.8-50.3C204.8 50.6 167.5 28.5 105 28.5" fill="#231F20"/><path d="M201 54.2c0 0-32.5-20.7-96-20.7 -63.5 0-96 20.7-96 20.7l1 46.7c0 18.3 3.5 116.3 95 169.5 91.5-53.2 95-151.2 95-169.5L201 54.2" fill="#FFF200"/><path d="M205 34.2L105 17.2 5 34.2l0.3 16.8c0 0 50.3-21.8 99.7-21.8 49.5 0 99.8 21.8 99.8 21.8L205 34.2" fill="#ED1C24"/><polyline points="5 29.2 5 23.2 105 4.2 205 23.2 205 29.2 105 10.7 5 29.2 " fill="#009A4E"/><path d="M102.7 41.3c0 0-0.1 1.1-0.4 1.7 -0.2 0.6-0.9 1-0.8 1.4 0 0.4 0.5 0.8 1.1 1.2 0.6 0.3 0.9 0.6 1.5 0.7 0.6 0.1 1.3 0.6 1.6 0.1 0.2-0.5-0.1-1.1-0.5-1.7 -0.6-1-0.9-1.3-1.9-2.7C103.2 41.6 103 41.3 102.7 41.3M98.1 152.4c0.1-0.2 1.5 0.8 2.3 1.2 1.6 1 2.4 1.5 3.8 2.6 1.1 0.9 1.7 1.3 2.8 2.3 1.4 1.2 2.2 2.2 2.5 2 0.5-0.7-0.9-2.6-2.2-3.6 -1.2-1-2.5-1.8-3.5-2.5 -1.3-0.8-1.4-1-3.3-2.3 -2-1.4-3.8-3.1-3.8-3.1l-2-1.6 -3.1-2.6 -3.4-3.2 -2.6-2.9c0 0-2-2.5-2.3-2.9 -0.3-0.5-1.3-2-2.1-3.3 -0.7-1.2-2.1-3-2.2-3.1 -0.7-0.9-2.4-0.5-4.4-1.7 -2.4-1.4-2.9-2.7-2.9-2.7s-0.1-0.2-0.2-0.3c-0.1-0.1-0.3-0.2-0.3-0.2l-1.2-0.9 -0.7-0.5c0 0-0.5-0.4-1.2-0.7 -0.7-0.3-2.2-1.2-2.2-1.2l-2.7-1.7c0 0-1.1-0.9-1.4-1.1 -0.4-0.3-1-0.7-1-0.7s-0.4-0.2-0.6-0.2c-0.1 0-0.7-0.1-0.7-0.1s-0.5-0.1-1.1 0.5c-0.5 0.6-0.4 0.3 0.5 3.8 0.3 1.4 0.3 6.3 0.7 7.8 0.5 1.9 1.8 4.4 1.9 4.7 0.1 0.3 0.2 1.4 0.2 1.4s-0.1 0.9 0 1.4c0.4 2.5 4.1 0.9 4.9 4.3 0.8 3.4-0.5 6.8-0.5 6.8s-0.8 1.7-1.9 2c-1.1 0.3-2.9-2.2-4.1-4.2 -1.2-2-2.3-4.6-2.6-5.4 -0.3-0.8-0.5-1-0.9-1.6 -0.6-0.9-1-0.7-1.6-2.1 -0.6-1.4-0.1-2-0.4-3.2 -0.2-0.7-0.3-0.8-0.5-1.7 -0.2-1-0.5-4-0.5-4l-0.4-2.9c0 0-0.1-1.3-0.3-2.1 -0.6-2.9-0.8-5.6-0.8-5.6l-0.1-1.1 0-1.2c0 0 0-0.6 0.1-1.1 0.1-0.6 0.4-1.1 0.4-1.1s0.6-1 0.7-1.2c0.1-0.2 1.3-1.6 1.3-1.6s0.6-0.5 1.6-1.1c1-0.6 1.9-0.6 1.9-0.6s0.3 0 2.1 0.2c1.8 0.2 5.5 1.2 6.4 1.4 0.9 0.2 2 0.6 2.7 1 2 1.1 2.7 0.6 1-0.6 -1.1-0.9-1.4-1.2-2.3-2.1 -0.7-0.7-1.3-1.1-1.9-1.8 -0.6-0.6-2.1-3-2.1-3l-1-1.5c0 0-0.5-0.6-0.6-0.6 -0.1 0-0.4-0.3-0.4-0.3s-0.7 0-1.3-0.1c-0.7-0.1-1 0.8-1 0.8s-1.5 2.8-3 4.4c-2.4 2.7-4.2 4.6-5.1 6 -1.2 2-1 4.2-1.6 5.2 -0.4 0.6-0.6 0.7-0.8 1.2 -0.6 1.6 1.7 2.5 1.1 4.2 -0.8 2.8-7.4 5.5-8.2 5.1 -0.9-0.5-0.2-4.2 0.1-5.5 0.3-1.2 1.2-3 1.3-3.1 0.1-0.1 0.3-0.5 0.4-0.9 0.1-0.4 0.1-1.2 0.1-1.6 0-0.5 0.2-1.2 0.2-1.2s0-0.1 0.6-1.4c0.6-1.3 2.7-4.2 4.2-7 1-1.8 1.4-2.9 2.4-4.7 0.9-1.7 2.5-4.2 2.5-4.2s0.7-1.3 1-1.8c0.3-0.5 1-1.4 1.6-2.4 0.6-0.9 0.8-1.6 1.6-2.4 0.7-0.6 1.1-1 2-1.3 1.3-0.4 2.2-0.2 3.6 0.2 1.4 0.4 2.4 1 3.3 1.8 0.9 0.8 1.6 1.6 1.6 1.6l0.4 0.7 0.3 0.2 0.9 0.5 2 1.3c0 0 4.6 3.2 4.9 3.3 0.3 0.2 1.1 0.8 1.2 0.9 0.2 0 1.4-1.3 3.8-3 2.8-1.9 3.8-1.8 4.7-2.3 0.9-0.5 1.3-0.9 2-1.6 1.1-1.1 1.1-1.7 2.3-3.2 1.2-1.5 2.4-2.4 2.4-2.4s0.2-0.2 2.4-2.7c2.2-2.5 3.2-4.4 3.2-4.4l1.2-2.4c0 0 1.8-3.8 2.3-5.3 0.6-1.5 0.6-2 0.6-2s0.1-0.4-0.3-1.1c-0.4-0.8-0.9-0.4-1.7-0.2 -1.6 0.3-2.6-0.1-4.2-0.4 -1.5-0.3-2.3-0.7-3.8-0.9 -1.5-0.3-2.4-0.5-3.9-0.4 -0.2 0-0.7 0.1-0.9 0.2 -0.8 0.3-1.1 0.4-1.7 0.7 -0.7 0.4-1.2 0.5-2 0.5 -0.6 0-0.9 0-1.4-0.2 -0.4-0.1-0.6-0.2-0.8-0.5 -0.2-0.2-0.3-0.3-0.4-0.5 0-0.2-0.1-0.2 0.1-0.4 0.1-0.3 0.3-0.3 0.3-0.3l0.7-0.2c0 0 1-0.3 1.1-0.3 0.1 0 1-0.3 1.4-0.5 0.4-0.1 0.9-0.4 0.9-0.4s0.3-0.4 0.2-0.6c-0.1-0.3-0.7-0.3-0.7-0.3s-0.8 0.3-0.9 0.3c-0.1 0-1.3 0.4-1.3 0.4s-1 0.2-1.7 0.4c-0.8 0.2-1.8 0.3-1.8 0.3l-0.3-0.1c0 0-0.4-0.2-0.4-0.5 -0.1-0.2-0.1-0.4-0.1-0.7 -0.2-1-0.3-1.5-0.1-2.5 0.1-0.4 0.2-0.6 0.4-1 0.1-0.3 0.2-0.5 0.4-0.8l0.6-1 1.1-1.7c0.4-0.4 0.6-0.6 1.1-0.9 0.7-0.4 1.1-0.5 2-0.6 0.9-0.1 1-0.1 2.3-0.4 1.3-0.3 2.1-0.8 2.1-0.8s3-1.1 4.8-2c1.9-0.9 2.8-1.9 4.7-2.7 0.8-0.3 1.3-0.5 2.2-0.7 0.1-0.1 0.2-0.1 0.2-0.3 0.1-0.3-0.4-0.5-0.7-0.4 -0.3 0-1 0.3-1.1 0 -0.1-0.3 0.6-0.4 0.6-0.4s0.4-0.2 0.4-0.4c0-0.3-0.5-0.1-0.7-0.1 -1.2-0.1-1.3-0.3-2.1-0.5 -1-0.2-1.5-0.5-2.5-0.6 -0.9 0-1.7 0.2-2.2 0.3 -0.5 0.1-0.6-0.4-0.4-0.5 1.5-0.7 1.6-0.8 2.6-0.8 0.6 0 1.4 0.1 1.5 0.2 0.1 0 1.3 0 1.6-0.3 0.3-0.3-1-0.3-1.6-0.5 -0.6-0.2-1.4-0.3-1.4-0.7 0-0.4 0.4-0.2 0.7-0.2 0.4-0.1 0.6-0.1 1-0.1 0.7-0.1 0.7-0.1 1.7-0.2 1-0.1 2.4 0.3 2.4 0.3s1.5 0.7 2.2 1c0.7 0.4 1.6 0.5 1.6 0.5s1 0.2 1.8-0.4c0.8-0.5 0.4-0.8 0.1-1.3 -0.3-0.4-0.6-1-0.1-2.2 0.5-1 0.7-2.2 0.8-2.3 0.2-0.1 0.8 0.8 1.2 1.2 1.5 1.4 3.4 2 5.2 4.9 0.1 0.2 0.8-0.1 3 0.2 2.1 0.3 4 2.6 4.4 3.1 0.5 0.5 1.1 0.5 1.1 0.5l1 0.1 3.7 0.1c0 0 1.7-0.3 2.7 0.1 0.7 0.3 2.9 1.8 1.9 2.3 -0.7 0.4-1.4-0.5-2-0.5 -0.8 0-1.1 0.1-1.8 0.3 -1.4 0.4-4.5 1.3-3.4 1.7 0.1 0 0.2 0.1 0.2 0.1l0.6 0.1c0 0 1.4 0.3 2.2 0.6 1.2 0.5 1.8 1 3 1.7 0.6 0.4 0.9 0.8 1.6 1 0.7 0.2 1.1 0 1.7 0.1 0.9 0.2 1.4 0.3 2.2 0.7 1.2 0.6 1.6 1.3 2.7 2 0.5 0.4 1 0.5 1.4 1 0.1 0.1 0.2 0.2 0.2 0.3 0.1 0.5-0.8 0.2-1.3 0.1 -0.5-0.1-0.8-0.4-1.3-0.6 -0.7-0.3-1.1-0.7-1.9-0.9 -0.6-0.1-0.9 0-1.5 0 -0.6 0-0.9 0.1-1.5 0.1 -1 0-1.6-0.1-2.5-0.3 -1.1-0.2-1.6-0.7-2.7-0.9 -1.2-0.3-3.4-1.3-3.2-0.3 0.1 0.5 1.3 0.9 1.3 0.9s0.8 0.4 1.5 0.8c0.8 0.3 1.2 0.8 1.2 0.8l0.5 0.4c0 0 0.5 0.7 1.2 1.6 0.7 0.8 1.9 0.8 1.9 0.8s0.7 0 2.3 0.3c1.6 0.3 3.2 1.3 3.2 1.3s1.2 0.8 1.9 1.7c0.7 0.8 0.3 1.3 0.2 1.4 -0.1 0.1-0.1 0-0.1 0.1 -0.1 0-1-1.1-1-1.1l-0.6-0.5c0 0-0.6-0.4-1.4-0.7 -0.8-0.3-1.1-0.1-1.1-0.1s-1.7 0.5-3.2 0.4c-1.5 0-2.3-0.6-2.3-0.6l-0.9-0.6c0 0-1.4-1.3-1.5-0.7 0 0.4 0.6 0.9 0.6 0.9s0.5 0.5 0.8 0.7c0.6 0.6 0.8 0.8 1.4 1.4 0.7 0.6 1.1 0.6 1.1 0.6s0.4 0.1 0.5 0.1c0.1 0 0.4 0.1 0.4 0.1s0.2 0.1 1.2 0.5c1 0.4 2.1 1.3 2.1 1.3s0.1 0.1 0.3 0.1c0.2 0 0.5 0.2 0.5 0.2 0.1 0 0.3 0 0.9 0.1 0.6 0.1 0.4 0.5 0.4 0.5l-0.1 0.2 -0.5 0.3c0 0-0.6 0.2-1.1 0.2 -0.4 0-1-0.2-1-0.2l-1.3-0.5c0 0-1.3-0.3-1.6-0.4 -0.3 0-1.5-0.3-1.7-0.3 -0.2 0-0.8-0.3-1-0.3 -0.2-0.1-0.5-0.2-1.2-0.5 -0.7-0.4-1-0.8-1.9-1 -0.9-0.3-1.4-0.3-2.1 0.1 -1.1 0.8 1.7 0.9 3.2 1.6 2.1 1 3.3 1.8 3.8 2.9 0.5 1.1 1 1.5 1 1.5s1.5 0.8 2.2 1.5c0.4 0.4 0.4 0.8 0.8 1.2 0.8 1 2.4 0.9 2.7 1.7 0.3 0.8-1.3 0.4-2.1 0.3 -1.5-0.1-1.9-1.5-3.2-2.1 -0.8-0.3-1.3-0.3-2.1-0.6 -1.5-0.5-2.1-1.1-3.6-1.6 -0.9-0.3-2.5-1.4-2.3-0.5 0 0.2 0.2 0.4 0.2 0.5 0.1 0.1 0.4 0.6 0.4 0.6s0.5 0.7 0.7 0.8c0.2 0.2 1.2 0.9 2.5 1.6 1.3 0.7 2.5 2.1 2.5 2.1s0.4 0.6 0.6 1c0.2 0.4 0.1 0.6 0.4 1.2 0.3 0.6 0.5 0.7 0.8 1.1 1 1 2 0.8 3.3 1.3 0.3 0.1 0.4 0.2 0.7 0.6 0.4 0.4-0.1 0.6-0.1 0.6s-1.4 0.4-2.3 0.3c-1.2-0.1-1.7-0.5-2.8-1 -1.1-0.6-1.8-1.6-1.9-1.7 -0.1-0.1-0.4-0.4-0.6-0.5 -0.2-0.1-0.8-0.3-1.3-0.4 -0.5-0.1-0.8-0.2-1.3-0.3 -0.7-0.2-1.4-0.5-1.7-0.6 -0.3-0.1-1.1-0.2-1.6 0.1 -1.1 0.6 1.7 1.1 2.6 2 0.4 0.5 0.6 0.8 1 1.3 0.3 0.4 0.4 0.6 0.8 0.9 0.3 0.2 0.8 0.4 0.8 0.4s0.7 0.3 1.6 0.8c1 0.5 2.1 2.1 2.1 2.1l0.7 1.1 0.4 0.6 0.1 0.3 0.2 0.3c0 0 0.5 0.7 0.9 0.9 0.4 0.2 0.3 0.4 0.3 0.4s0 0.1-0.3 0.3c-0.3 0.2-0.4 0-0.8-0.1 -0.4-0.1-0.6-0.5-0.9-0.7 -0.3-0.3-0.7-0.9-1.3-1.3 -0.5-0.3-1.2-0.4-1.5-0.5 -0.3-0.1-0.9-0.5-1.2-0.6 -0.3-0.1-0.9-0.4-0.9-0.4s-1.3-0.7-2-0.9c-0.7-0.2-0.3 0.2-0.3 0.2s0.7 1 1.3 1.4c0.8 0.5 1.9 1 1.6 1.4 -0.2 0.3-0.6 0.2-1 0.1 -0.6-0.1-1.3-0.8-1.3-0.8s-0.3-0.2-1.6-0.6c-1.3-0.4-0.9 0.3-0.5 0.7 0.3 0.4 0.7 0.6 0.7 0.6l0.9 0.4 0.4 0.1c0 0 0.4 0.1 1.6 0.3 1.2 0.3 1.9 0.9 1.9 0.9s0.7 0.6 1.6 1.3c0.9 0.7 1.8 0.8 2.3 0.9 0.5 0.1 0.5 0.4 0.5 0.4s0.1 0.3 0 0.4 -0.1 0.2-0.2 0.2c-0.1 0-0.2 0-0.3 0.1 -0.1 0.1-0.7 0.2-0.7 0.2s-1.4 0-2.4-0.3c-1.1-0.3-2-1-2.1-1 -0.1 0-1.1-0.6-1.8-0.8 -0.7-0.2-1.7-0.1-1.8-0.1 -0.1 0-0.5 0.1-1.1 0.3 -0.6 0.2 0.2 0.4 0.2 0.4l0.5 0.1 1.1 0.1c0 0 1.1 0.1 2.1 0.5 1 0.3 1.6 1 2.2 1.7 0.6 0.6 1.3 1 1.3 1l0.5 0.3 0.3 0.2 0.1 0.2c0 0 0 0.1-0.1 0.2 0 0.1-0.2 0.2-0.2 0.2s-0.2 0-0.4 0c-0.1 0-0.8-0.4-1.3-0.6 -0.6-0.2-0.8-0.5-1.4-0.6 -0.5-0.1-1.2-0.2-1.3-0.1 -0.2 0-1.3 0.2-2.1 0.3 -0.8 0.1-1.6 0.1-2.6 0 -1.4-0.2-3.3-1.3-3.6-1 -0.5 0.7 1 0.8 1.8 1.3 1 0.6 2.8 1.1 2.8 1.1s1.3 0.3 2 0.6c1.6 0.8 2.1 1.9 3.4 3.1 0.7 0.7 1.3 0.9 2.3 1.1 0.8 0.1 0.8 0 2.1-0.2 1.3-0.3 2.1-1.5 2.5-1.1 0.1 0.1 0 0.2 0 0.3 0 0.1-0.1 0.4-0.1 0.4s-0.1 0.2-0.4 0.5c-0.2 0.2-1.2 0.7-1.6 0.9 -0.5 0.2-1.7 0.5-3.1 0.5 -1.5 0-3.5-1.2-3.5-1.2l-1.5-0.6c0 0-0.7-0.3-1.1-0.5 -1.2-0.5-2-0.4-3.3-0.8 -0.8-0.2-1.3-0.4-2-0.6 -0.7-0.1-0.3 0.1-0.2 0.2 0.3 0.5 0.8 0.6 1.3 0.9 0.8 0.4 1.3 0.3 2.1 0.6 0.9 0.4 1.6 0.9 2.1 1.2 0.5 0.3 0.8 0.6 1.3 1.1l1.6 1.3c0 0 0.4 0.3 0.4 0.4 0 0.1 0.2 0.5 0.1 1 -0.1 0.5-0.5 0.2-0.5 0.2l-0.4-0.3 -0.4-0.4 -0.7-0.5c0 0-0.6-0.5-1.5-1 -1-0.5-2.1-0.6-2.1-0.6s-1-0.2-1 0.2c0 0.3 0.3 0.4 1.1 0.6 0.8 0.2 1.4 0.6 1.4 0.6s0.8 0.6 1.4 1.3c0.6 0.7 0.8 1.4 0.8 1.4s0.3 0.6 1.1 1.3c0.8 0.8 1.2 0.5 1.1 0.9 0 0.4-0.4 0.4-0.4 0.4s-0.2 0-0.3 0c-0.1 0-0.3-0.1-0.5-0.2 -0.2-0.1-1-0.7-1-0.7s-1.3-1-1.4-1.2c-0.1-0.1-1.4-1-1.4-1s-0.7-0.5-1.2-0.7c-0.5-0.3-1.2-0.5-1.6-0.7 -0.4-0.1-1.1-0.2-1.1-0.2s-0.9-0.1-1.4-0.3c-0.8-0.3-1.8-1.2-1.9-1.2 -0.1 0-0.9-0.3-1-0.3 -0.1 0-0.5 1.5-0.6 2.3 -0.4 3.5 0.6 5.9 2 9.1 2.1 4.7 8 10.5 8 10.5s1.5 0.8 2.1 1.3c1.8 1.4 4.6 3.3 7.2 5.9 2.2 2.2 5.1 6.1 5.1 6.1s1.7 2.4 2.5 4c1 2 1.7 5.2 1.7 5.2s0.1 0.5 0.1 0.6c0.1 0.1 0.2 0.3 0.3 0.3l1 0c0.1 0 1.3-0.1 2-0.3 0.8-0.2 2.6-1 3.8-1.6 1.2-0.6 2.6-1.8 2.6-1.8s0.3-0.2 1.7-1.8c1.4-1.6 2.3-3.9 2.6-4.8 0.3-0.9 0.6-2.6 0.8-5.4 0.2-2.9-0.2-5.9-0.2-5.9s-0.5-4.3-0.8-5.7c-0.3-1.4-1.1-3.8-1.1-3.8s-0.5-2.1-0.7-3.4c-0.2-1.3-0.2-3.5-0.2-3.5s0-1.3 0.4-3.8c0.4-2.4 1.9-4.9 1.9-4.9s0.4-0.8 2-2.7c1.6-2 2.2-2.3 3.8-3.5 1.3-0.9 3-2.4 3.5-2.1 0.6 0.4-0.6 1.1-1 1.5 -1 1-2.9 2.8-4.4 5.4 -1.3 2.3-1.8 3.8-2.2 5.4 -0.3 1.5-0.2 3.2-0.1 3.7 0 0.6 0.4 0.4 0.4 0.4s3.3-2.6 5-4.6c1.9-2.1 3.6-6 4.3-6 0.4 0 0.7 1 0.6 1.5 -0.4 2-0.6 2.2-1.2 3.5 -0.7 1.5-1.4 2.2-2.4 3.6 -1.1 1.5-1.6 2-2.5 3.9 -1.2 2.8-0.5 4.9-0.5 4.9s0.2 1.3 0.7 1.3c1 0 3.1-2.7 4.5-5 1-1.6 1.4-3.5 2.1-4.5 0.6-0.9 1.2 1.4 0.9 2.8 -0.3 1.6-1.1 3.1-2.9 5.3 -1.7 2.2-1.7 4.3-1.7 4.3s-0.2 1-0.3 3.1c-0.1 2.1 0.5 5.3 0.5 5.3s0.5 2.7 0.6 4.7c0.1 2 0 6.6-1.9 10.2 -0.8 1.4-2.4 3.4-2.4 3.4s-1.2 1.3-2.3 2c-1 0.7-3.5 1.9-3.5 1.9s-1.7 0.6-1.9 0.6c-0.2 0.1-0.4 0.3-0.4 0.3s0.2 0.3 0.2 0.5c0.1 0.1 0.5 1.3 0.5 1.3s0.5 1.7 0.7 3c0.2 1.3 0 1.6-0.2 2.6 -0.2 1-0.6 0.5-0.7 2.4 -0.1 1.7 0.7 2.5 0.5 4.4 -0.1 0.8-1-1-1.4-1.8 -1-1.7-0.7-4.3-0.7-5 0-0.7-0.1-1.4-0.3-2.2 -0.3-1.1-0.7-1.9-1.2-2.5 -0.5-0.6-1-1-1.2-1 -0.2 0.1-0.2 0.4-0.2 0.6 0 0.2 0.3 0.8 0.4 0.9 0.1 0.1 0.7 1.3 0.7 1.3s0.3 0.9 0.4 2.6c0.1 1.7-0.4 3.8-0.4 3.8s-0.7 2.4-1.4 3.8c-0.8 1.6-2.6 3.7-2.6 3.7s-1.3 1.2-2.2 3.1c-1 1.9-0.1 2.8-0.5 3 -0.4 0.3-1.1-1.1-1.3-2 -0.2-0.8-0.1-1.2 0.3-2.2 0.3-0.9 1.1-2.2 1.1-2.2l1.2-2c0 0 1.4-2.6 1.8-4.6 0.4-1.9-0.1-4-0.1-4s-0.1-0.7-0.5-0.7c-0.5 0-0.8 0.5-1 1 -0.4 1.1 0.2 0.9-0.4 2.6 -0.5 1.4-0.6 1.2-0.9 2 -0.3 1-0.5 2-0.4 2.6 0 0.6-0.3 0.4-0.3 0.4s-0.6-1.1-0.6-2.4c0-0.7 0-1.2 0.1-1.9 0.1-1.2 0.6-3 0.6-3s0.5-1.8 0.4-3.4c-0.1-1.6-0.7-1.9-0.7-1.9s-0.1-0.2-0.8-0.2c-0.6 0-0.6 1.2-0.6 1.2s-0.2 1.6-0.4 2.6c-0.7 2.8-1.6 4.2-3.3 6.6 -1.5 2.1-3.5 4-4.5 4.8 -1 0.9-4.1 3.1-4.1 3.1l-3.6 2.4c0 0-1.4 1.4-2.1 3.1 -0.7 1.7-0.6 3-0.2 4.5 0.4 1.5 0.9 2.3 1.2 2.7 0.3 0.4 0.9 1.2 1 2.1 0.1 0.5 0 0.9 0.1 1.4 0 0.5 0.1 0.8 0.1 1.2 0 0.8 0.1 1.3-0.3 1.9 -0.3 0.5-1.2 0.9-1.2 0.9s-1 0.4-1.6 0.8c-6.2 3.7-8.4 6.1-11.8 10.3 -1.1 1.3-0.3 1.2-1.5 2.8 -0.7 0.9-2.4 0.9-3 2.1 -0.8 1.5 1.9 3-1.2 4.4 -4 1.7-11 0.5-11.1 0 -0.4-1.5 1.4-3.2 2-3.9 2.8-3.1 5.3-3.2 6.3-5.7 0.2-0.5 0.1-1 2.4-2.7 1.6-1.2 7.9-5.9 10.6-9.1 0.9-1.1 1.8-1.8 2.2-3 0.4-1.2-0.4-1.9-0.4-1.9l-1.1-1.8 -2.2-3.9c0 0-0.9-2.1-1.4-3.2 -0.5-1.2-1.4-4.4-1.4-4.4s-0.7-2.9-0.8-4.7c-0.2-3.4 0.3-5.3 1.1-8.6 1.1-4.2 3.8-6 4.8-10.2 0.3-1.2 0.4-3.3-0.2-3.2 -0.6 0.1-0.6 1.8-1.1 2.9 -1.7 4.2-3.9 6-5.1 10.3 -0.8 2.9-1.1 4.6-1.1 7.7 0 1.7-0.1 1.4 0.4 4.4 0.2 1.1 0.4 1.7 0.8 2.8 0.2 0.8 0.8 2.2 0.8 2.2s0.9 1.9 1.2 3.2c0.1 0.4 0.2 0.7 0.2 1.2 -0.1 0.8 0.1 1-0.3 1.7 -0.5 0.9-0.2 1.4-1.7 1.7 -1.3 0.3-4.1-0.6-4.1-0.6s-11.4-3.5-18.6-2.5c-1.4 0.2-2.2 0.7-3.7 0.7 -1.3 0-2-1-3.3-0.7 -0.3 0.1-0.4 0.3-0.6 0.4 -1.9 1.3-0.5 3.6-5.5 2.4 -3.1-0.7-6.9-2.6-6.2-3.8 0.9-1.6 2-1.8 4.5-2.9 2.6-1.1 6.6-0.8 7.4-0.8 1-0.1 2.3-0.7 4-0.8 2.9 0 3.5 0.3 3.5 0.3L93 183.5l9.5 0.1c0 0 1.7-0.1 2.4-0.3 0.7-0.1 1.2-1.5 1.6-2.1 0.4-0.6 0-1.6 0-1.6l-0.3-0.4 -0.9-1.5 -1.7-2.8 -1.9-3.7c0 0-1.2-2.6-1.9-4.3 -0.6-1.7-1-2.6-1.4-4.4 -0.4-1.8-0.7-3.3-0.8-4.7C97.6 155.7 97.5 154.1 98.1 152.4" fill="#231F20"/><path d="M160 149c2-2.6 2.2-5 2.3-8.3 0.1-2.4-0.8-6.2-0.8-6.2l-0.1-0.3c0 0-0.4-0.5-0.6 0.1 0 0.5 0.1 1 0.1 1l0.1 4.9c0 0-0.2 2.5-1 5 -1.4 4.3-5.1 6.2-5.7 7.7C153.4 155.3 157.6 152.1 160 149M138.9 156.9c0 0-0.8 0.2-0.8 1 0 0.8 0.2 1.5 0.2 2.5 0 1.2-1.2 2.7-0.4 3.2 1.3 0.8 2.4-4.9 2-5.7C139.4 157 139.1 156.8 138.9 156.9M124.8 196.1c0 0-0.2-0.1-0.7 0 -0.5 0.2-0.4 0.6-0.4 0.6s-0.1 0.5 0.3 0.6c0.4 0.1 1-0.8 1-0.9C124.9 196.3 124.8 196.1 124.8 196.1M111.5 205.5c0 0-0.1 0.1 0 0.2 0.1 0.1 0.3 0 0.3 0s2.3-1.8 3.7-3.1c1.4-1.4 3.5-3.7 3.5-3.7s0.1-0.2 0-0.3c-0.2-0.1-0.6 0.1-0.9 0.2 -0.3 0.1-0.5 0.3-0.7 0.5 -0.2 0.2-0.9 0.9-0.9 0.9l-1.8 1.7 -1.1 1 -1.1 1 -0.5 0.5c0 0-0.1 0.2-0.1 0.3 0 0.1-0.2 0.2-0.2 0.2s-0.2 0.2-0.2 0.2 -0.1 0.1-0.1 0.1C111.5 205.5 111.5 205.5 111.5 205.5M107.5 208.1c0 0-0.3-0.2-0.6 0 -0.4 0.2-0.8 0.7-0.8 0.8 0 0.1-0.3 0.4-0.1 0.6 0.1 0.3 0.6-0.1 0.7-0.1 0.1 0 0.7-0.5 0.7-0.5S107.7 208.7 107.5 208.1M99.8 215.9c0 0-0.3-0.6-0.7-0.4 -0.4 0.3-0.7 0.3-1.1 0.9 -0.1 0.1-0.5 0.6-0.6 0.8 -0.1 0.1-0.5 0.9 0.4 1 1.5 0.1 0.5-0.9 1-1.2 0.4-0.3 1.2-0.2 1.2-0.5C100 216.1 99.8 215.9 99.8 215.9M73.7 185c0 0-0.9 0.2-1 0.5 -0.1 0.3 0.5 0.6 0.6 0.6 0.1 0 0.3 0.2 0.9-0.1s0.6-0.7 0.6-0.7S75.2 184.9 73.7 185M88.1 184.6c0 0 0-0.3-0.6-0.3 -0.6 0-0.8 0.2-0.8 0.2 0 0.1 0 0.3 0.6 0.3C87.9 184.9 88.1 184.8 88.1 184.6M101.7 185c-1.1 0-0.8 0-1.5 0.1 -1.3 0.1-2 0-3.2-0.1 -1.8-0.1-4.5-0.6-4.5-0.6s-0.3-0.1-0.5 0.1c-0.1 0.2 0.3 0.7 0.7 0.8 2.2 0.7 2.4 0.6 3.9 0.6 0.8 0 1.3-0.1 2.2-0.1 1.1-0.1 1.6 0.1 2.7-0.2C101.8 185.5 102.1 185 101.7 185M109.3 182.7c0 0-0.2-0.3-0.7 0 -0.5 0.2-0.8 0.7-0.8 0.7s-0.2 0.3 0.2 0.3c0.5-0.1 0.9-0.3 1-0.3C109.2 183.3 109.6 183 109.3 182.7M102.7 90.9c0 0 3.2-3 5.5-7 1.4-2.4 2-7.9 0.8-6.5 -0.5 0.6-1.2 3.5-2.2 5.6 -1.5 3-4.6 7.3-4.6 7.3S101.6 91.8 102.7 90.9M89.8 98.6c0 0-0.3 0.3-0.2 0.7 0.2 0.4 0.8 0.1 0.8 0.1s1.5-0.6 3-0.6c1.6-0.1 3.7 0.4 3.7 0.4s1 0.3 1.2 0.4c0.2 0.1 0.7 0.3 0.8 0.4 0.1 0 0.6 0.3 0.9 0 0.3-0.3-1.9-2.3-4.1-2.6 -3.7-0.5-6.2 1.1-6.2 1.1L89.8 98.6M74.4 111.7c0.3 0.2 1.5-2.1 2.6-3.6 0.8-1.1 2.1-2.9 2.1-2.9s0.6-0.8-0.4-0.4c-0.4 0.2-1.6 1.1-2.4 2.7C75.6 108.9 74.2 111.5 74.4 111.7M65.8 101.4c0 0-0.3 0.9 0.8 2.1 1.1 1.1 1.4 2.1 2 1.4 0.2-0.2-0.7-1.7-1.1-2.2 -0.4-0.4-0.8-0.8-0.8-0.8l-0.3-0.2 -0.4-0.2 -0.2-0.1C66 101.4 65.9 101.4 65.8 101.4M62.4 92.6c0 0-1.2 0.2-1.5 0.8 -0.3 0.6 1.3 0.2 1.3 0.2s1.1 0.1 1.1-0.4C63.4 92.9 63.2 92.8 62.4 92.6M43.9 123.3c-0.6-0.2-0.7 1-0.8 1.4 -0.1 0.4 0.3 1.1 0.4 1.1 0.1 0 0.6-0.7 0.6-1.1C44.2 124.3 44.4 123.4 43.9 123.3M63.1 146.1c0 0-1.1-0.8-1.2-0.5 -0.2 0.3 0.9 1.8 0.9 1.8s0.3 0.5 0.8 0.3c0.5-0.2 0.3-0.8 0.3-0.8S63.5 146.2 63.1 146.1M55.1 121.4c0 0-0.3-0.1-0.4 0.3 -0.1 0.3-0.1 0.9-0.2 1.5 -0.1 0.5 0.1 1.8 0.1 1.8s0.1 1.1 0.3 1.7c0.2 0.7 0.8 1.7 0.8 1.7s0.2 0.5 0.5 0.5c0.3 0 0.2-0.4 0.2-0.4s-0.9-3.5-0.9-3.9c-0.1-1.2-0.1-2.6-0.1-2.6l0-0.2C55.5 121.8 55.5 121.4 55.1 121.4M56.5 110.6c0 0-0.5-0.1-0.9 0.8 -0.5 1-0.4 1.3-0.3 1.4 0 0 0.4 0 1-0.8 0.6-0.9 0.4-1.2 0.4-1.2S56.6 110.6 56.5 110.6M69.9 120.4c0 0 0.6 0.9-0.5 0.7 -1.1-0.2-3.5-2.1-4.5-2.6 -1-0.5-2.5-0.7-1.9-1.3 0.1-0.1 0.1-0.2 0.3-0.2 0.2 0 0.8 0.3 0.9 0.3 0 0 1.7 0.7 1.8 0.7 0.1 0 1 0.4 1.7 0.8 0.7 0.4 1.8 1.2 1.8 1.2L69.9 120.4M101.3 147.4c0.3 1-3.6-2-5.7-3.6 -5.5-4.2-12.3-12.9-11.4-13.7 0.7-0.6 3.5 3.3 7.5 7.7C96.1 142.5 101.1 146.8 101.3 147.4M117.5 143.2c-1.2 1.3-1.6 2.9-0.9 4.2 0.7 1.2 0.9-1.7 1.6-2.6 0.6-0.7 1-0.6 2.1-1.4C122.1 142.1 119 141.6 117.5 143.2M110.6 115.8c-0.8-0.1-0.8 1.1-0.7 2 0.5 4 2.3 7.1 4.7 10 1.5 1.8 5.4 4.9 5.9 4.4 0.2-0.2-3.8-3.2-6.3-7.2 -1.8-2.8-2.7-5.2-3-7.5C111.2 117.2 111.3 115.9 110.6 115.8M95.2 56.6c-1.8 1-4.9 1.8-4.9 1.8s-0.1 0.3 0.3 0.3c2.7-0.2 3.7-0.6 5.1-1.2 1.4-0.6 2.5-2.3 2.5-2.3s0.6-1.1-0.5-0.2C97.2 55.3 96.1 56.1 95.2 56.6M116.9 49.8c0 0-0.6-0.1-1 0.1 -0.4 0.3-0.3 0.5-0.3 0.5s0.6 0.5 1.1 0.6c0.5 0.1 1.4 0.5 1.4 0.2 0-0.3-0.6-0.9-0.8-1.1C117.1 49.8 116.9 49.8 116.9 49.8M106.6 68.5c0.1 0.2 1.9-0.3 2.6-0.7 0.6-0.3 0.8-1.3 0.8-1.3s0.2-1-0.1-0.6C108.9 67.6 106.5 68.3 106.6 68.5M106.6 63.8c0.7-1.4-2 1.5-3.4 2.2 -0.9 0.5-2.3 1.1-2.3 1.1s-0.4 0.5 0.1 0.4c0.5 0 1.8 0.4 2.9-0.4 0.2-0.2 1.4-1.8 1.4-1.8S106.2 64.5 106.6 63.8M106.2 69.9c0.1 0.2 3.2 0.2 3.9-0.1 0.6-0.2 0.9-1.3 0.9-1.3s0.4-0.9 0.1-0.6C109.7 69.3 106.1 69.6 106.2 69.9M56.5 98.2c0 0-0.5-0.2-1.1 0.7 -0.6 0.9-3.2 4.8-2.7 5.4 0.5 0.7 2.8-3.5 3.5-4.3 0.7-0.8 0.4-1.6 0.4-1.6S56.6 98.2 56.5 98.2M113.2 169.5c-0.3 1.3 0.1 4 0.5 4.5 1.1 1.3 0.4-2.1 0.6-3.3 0.1-1.1 0.3-1.5 0.8-2.7C116.1 165.9 113.8 166.7 113.2 169.5M103.7 55.2c0 0-0.9 0-1.5 0.4 -0.7 0.4-0.8 0.9-0.8 0.9s-0.1 0.4 0 0.6c0.2 0.5 1.1-0.2 1.8 0 0.5 0.2 0.8 0.3 1.2 0.8 0.4 0.4 1 1 1.4 0.7 0.4-0.3 0.2-1.2 0.2-1.2s-0.5-1.4-1.1-1.8C104.2 55.2 103.7 55.2 103.7 55.2M89.4 65.1c0 0-0.5 0.1-0.4 0.7 0.1 0.6 0.4 0.5 0.4 0.5s1-0.4 0.9-1C90.4 64.6 89.4 65.1 89.4 65.1M82.5 61.9c0 0-0.5 0-0.9 0.7 -0.4 0.6-0.6 1.3-0.6 1.3s-0.2 0.9 0.1 1.1c0.3 0.3 0.6-0.6 1.1-0.9 0.3-0.2 0.4-0.3 0.7-0.5 0.4-0.3 1 0.1 0.9-0.7C83.8 62.3 83 61.9 82.5 61.9M105 53.8c0 0-1.2-0.2-1.1 0.3 0 0.4 0.6 0.2 1 0.3 0.4 0.2 0.6 0.2 0.9 0.5 0.2 0.2 0.2 0.6 0.5 0.6 0.4 0 0.3-0.1 0.3-0.1s-0.3-1-0.8-1.3C105.3 53.8 105 53.8 105 53.8M118.2 58.6c-0.2 0.6-0.3 0.9-0.3 0.9s-0.3 1.3 1 0.8c1.3-0.5 0.6-0.3 1.6-0.7 0.9-0.5 0.9-0.2 1.6-0.2 0.2 0 0.4 0 0.7 0 0.3-0.1 0.2-0.4-0.5-0.6 -0.7-0.2-1.6-0.1-2.6-0.2C119.1 58.6 118.3 58 118.2 58.6M118.8 53.8c0 0-0.6-0.1-1 0.1 -0.4 0.3-0.3 0.5-0.3 0.5s0.6 0.5 1.1 0.6c0.5 0.1 1.4 0.5 1.4 0.2 0-0.3-0.6-0.9-0.8-1.1C119 53.8 118.8 53.8 118.8 53.8M121.1 62.9c0 0-0.7-0.1-1.1 0.1 -0.4 0.2-0.3 0.4-0.3 0.4s0.7 0.5 1.2 0.5c0.5 0.1 1.5 0.5 1.5 0.1 0-0.3-0.6-0.9-0.8-1C121.3 62.9 121.1 62.9 121.1 62.9M121.3 66.2c0 0-0.7-0.1-1.2 0.1 -0.5 0.3-0.3 0.5-0.3 0.5s0.7 0.5 1.2 0.6c0.5 0.1 1.6 0.5 1.6 0.2 0-0.4-0.7-1-0.9-1.2C121.5 66.2 121.3 66.2 121.3 66.2M121.6 69.4c0 0-0.7-0.2-1.3 0.1 -0.5 0.3-0.4 0.6-0.4 0.6s0.8 0.6 1.3 0.7c0.6 0.1 1.8 0.6 1.7 0.2 0-0.4-0.7-1.1-0.9-1.4C121.8 69.4 121.6 69.4 121.6 69.4M121.5 73.3c0 0-0.7-0.2-1.3 0.2 -0.5 0.3-0.4 0.6-0.4 0.6s0.8 0.6 1.3 0.7c0.6 0.1 1.8 0.6 1.7 0.2 -0.1-0.4-0.7-1.1-0.9-1.3C121.8 73.4 121.5 73.3 121.5 73.3M121 81.1c0 0-0.7-0.2-1.3 0.2 -0.5 0.3-0.4 0.6-0.4 0.6s0.8 0.6 1.3 0.7c0.6 0.1 1.8 0.6 1.7 0.2 0-0.4-0.7-1.1-0.9-1.4C121.2 81.2 121 81.1 121 81.1M121.5 77.2c0 0-0.9-0.2-1.4 0.2 -0.6 0.4-0.4 0.7-0.4 0.7s0.9 0.7 1.5 0.8c0.6 0.1 2 0.7 2 0.2 -0.1-0.5-0.8-1.3-1.1-1.6C121.8 77.3 121.5 77.2 121.5 77.2M120.6 84.6c0 0-0.6-0.1-1 0.1 -0.4 0.3-0.3 0.5-0.3 0.5s0.6 0.5 1.1 0.6c0.5 0.1 1.4 0.5 1.4 0.2 0-0.3-0.6-0.9-0.8-1.1C120.8 84.6 120.6 84.6 120.6 84.6M120 87.9c0 0-0.5-0.1-0.9 0.1 -0.3 0.2-0.2 0.4-0.2 0.4s0.5 0.4 0.9 0.5c0.4 0.1 1.2 0.4 1.2 0.1 0-0.3-0.5-0.8-0.6-0.9C120.2 88 120 87.9 120 87.9M119.3 91c0 0-0.5-0.1-0.8 0.1 -0.3 0.2-0.2 0.4-0.2 0.4s0.5 0.4 0.8 0.4c0.3 0.1 1.1 0.4 1.1 0.1 0-0.2-0.4-0.7-0.6-0.8C119.5 91 119.3 91 119.3 91M118.6 93.5c0 0-0.5-0.1-0.8 0.1 -0.3 0.2-0.2 0.4-0.2 0.4s0.5 0.4 0.8 0.4c0.3 0.1 1.1 0.4 1 0.1 0-0.2-0.4-0.7-0.6-0.8C118.7 93.6 118.6 93.5 118.6 93.5M117.7 96.4c0 0-0.4-0.1-0.6 0.1 -0.3 0.2-0.2 0.3-0.2 0.3s0.4 0.3 0.7 0.3c0.3 0 0.9 0.3 0.8 0.1 0-0.2-0.4-0.6-0.5-0.7C117.8 96.5 117.7 96.4 117.7 96.4M116.7 99.2c0 0-0.3-0.1-0.5 0.1 -0.2 0.1-0.2 0.2-0.2 0.2s0.3 0.3 0.6 0.3c0.2 0 0.8 0.3 0.7 0.1 0-0.2-0.3-0.5-0.4-0.6C116.8 99.2 116.7 99.2 116.7 99.2M115.6 101.7c0 0-0.3-0.1-0.5 0.1 -0.2 0.1-0.2 0.2-0.2 0.2s0.3 0.3 0.6 0.3c0.2 0 0.7 0.3 0.7 0.1 0-0.2-0.3-0.5-0.4-0.6S115.6 101.7 115.6 101.7M45.6 114.9c0 0-0.5 1-0.3 1.6 0.3 0.6 1-0.9 1-0.9s0.8-1.5 0.4-1.8C46.4 113.6 46.2 114.4 45.6 114.9" fill="#FFF"/><path d="M86.6 207.1c0 0-0.4-0.5-0.8-0.1 -0.4 0.4-0.9 1-1.8 0.9 -0.9-0.1-1.3-0.2-1.8-0.4 -0.5-0.2-1.2-0.5-1.2-0.5s-1.8-0.7-3.3-0.7c-1.5 0-4 0.6-5.2 1.9 -1.2 1.3-1.5 2.7-1.5 2.7s-0.4 2.4 0.3 3.5c0.7 1.1 1.5 2.3 3.1 3.3 1.7 1 2.4 1.4 2.4 1.4l2.9 1.3 2.7 1c0 0 3.9 1.2 4.4 4.1 0.5 3-1.3 6.8-6.7 7.1 -5.3 0.3-7.9-2.2-8.7-3.9 -0.8-1.7-0.4-3.1-0.4-3.1l0.2-0.5 0.2-0.1c0 0 0.8 0.6 1.6 0.5 0.8-0.1 2.3-1.1 2-2.7 -0.3-1.6-1.7-1.9-2.4-1.9 -0.7 0.1-3.7 0.8-3.8 5.3 -0.1 4.4 4 6.8 4 6.8s2.9 1.8 6.1 1.6c3.2-0.1 5.9-1.4 5.9-1.4s4.8-2.4 4.9-7.6c0.1-5.2-3.2-7-3.2-7s-1.2-0.8-2.3-1.3c-1.1-0.5-3.7-1.7-3.7-1.7l-2.6-1.2 -1.6-0.9 -0.9-0.6c0 0-2.1-1.7-1-3.5 1.1-1.8 4.4-1.1 4.4-1.1s2.5 0.5 4.5 2c2 1.4 3.1 3.1 3.1 3.1l0.8 1.3 0.1 0.2 0.7-0.2c0 0-1.1-3.1-1.3-4.3C86.8 209.1 86.6 207.1 86.6 207.1" fill="#231F20"/><path d="M118.1 224.6c0 0 0.7 0.8 1.7 0.8 1 0 2.3-0.7 2.3-2.4 0-1.7-1.8-2.2-1.8-2.2s-2.6-0.6-3.9 2.1c-1.3 2.7-0.6 5-0.6 5s0.6 3.6 4.4 5.7c3.8 2.1 7.9 0.6 7.9 0.6s3.1-1 5.7-4c2.7-3 3.9-6.5 3.9-6.5l0.9-2.3 1.1 0c0 0 1.6 0.1 2.6-0.7 1.1-0.9 1.8-2.1 1.8-2.1l0.1-0.4 -0.7-0.3c0 0-0.8 1.1-1.9 1.2 -1.1 0.1-2.3-0.1-2.3-0.1l1.1-2.9c0 0 1.2-2.5 1.6-3.1 0.4-0.6 1.8-2.4 1.8-2.4s3 0 5.9-0.6c2.9-0.6 4.7-1.3 4.7-1.3L158 207.1l0.9-0.5 -0.3-0.7c0 0-3.2 1.1-8 1.7 -4.7 0.5-7.7 0-7.7 0l-5.4-0.8c0 0-1.6-0.3-2.9-0.3 -1.3 0-3.8 0.5-3.8 0.5s-2.6 0.6-3.7 1.5c-1.2 0.9-3.9 2.9-2.6 6 1.3 3.1 6.4 1.4 7.1-0.9 0 0 0.3-0.7 0.3-0.7l0.1-0.4 -0.4-0.2 -0.5 0.6c0 0-1.9 1.6-3.4 0.6 -1.5-1-0.5-2.5-0.3-2.6 0.1-0.2 0.9-1.1 2.9-1.6s4.8 0.3 4.8 0.3l3.1 0.6c0 0 1.7 0.3 1.8 0.3 0.1 0 0.6 0.1 0.6 0.1l-1.1 1.2c0 0-1.6 1.5-2.7 3.7 -1.1 2.2-1.6 3.4-1.6 3.4l-0.1 0.2c0 0-1.4 0.2-2.3 0.7 -0.9 0.5-1.5 1.4-1.5 1.4l-0.4 0.7 0.6 0.5c0 0 0.6-0.7 1.4-0.9 0.8-0.2 1.4 0.1 1.4 0.1s-1.1 2.8-1.7 3.8 -1.4 2.9-2.7 4.3c-1.3 1.4-2.2 2.6-5.1 3 -2.9 0.4-5-1.5-5.8-2.4 -0.8-0.9-1.2-2.3-1.3-3.4C117.6 225.6 118.1 224.6 118.1 224.6" fill="#231F20"/></svg>
